<svg width="1155" height="264" viewBox="0 0 1155 264" fill="none" xmlns="http://www.w3.org/2000/svg">
<path d="M643.285 4.51549H714.455L678.65 259.937H607.481L643.285 4.51549ZM553.566 4.51549L505.538 151.655L484.58 4.51549H434.806L371.932 151.219L364.074 4.51549H295.089L319.103 259.937H376.299L447.032 98.3881L471.919 259.937H528.242L621.242 4.51549H553.566ZM1151.07 152.966H982.1C982.975 186.148 1002.84 207.979 1032.09 207.979C1054.14 207.979 1071.61 196.19 1085.14 173.705L1142.18 199.632C1122.57 238.259 1081.26 263.429 1030.34 263.429C960.925 263.429 914.858 216.711 914.858 141.614C914.858 59.0929 969.003 0.585938 1045.41 0.585938C1112.65 0.585938 1155 45.9942 1155 116.726C1155 128.515 1153.69 140.303 1151.07 152.966ZM1087.76 104.064C1087.76 74.3746 1071.17 55.5995 1044.53 55.5995C1017.03 55.5995 994.322 75.2475 988.211 104.064H1087.76ZM72.6467 81.4852L0 166.385H129.714L144.29 126.352H88.7061L122.669 87.0838L122.777 86.0422L100.694 48.0281H200.049L123.032 259.937H175.736L268.736 4.5157H28.4771L72.6467 81.4852ZM830.158 55.5997C855.26 55.5997 877.261 69.1001 896.469 92.2407L906.563 20.2337C888.664 8.11757 864.43 0.585938 832.342 0.585938C768.593 0.585938 732.788 37.9169 732.788 85.2897C732.788 118.145 751.128 138.229 781.256 151.219L795.662 157.768C822.514 169.23 829.717 174.906 829.717 187.022C829.717 199.574 817.6 207.543 799.155 207.543C768.705 207.652 744.037 192.042 725.48 165.409L715.197 238.775C736.323 254.889 763.413 263.43 799.155 263.43C859.74 263.43 896.959 228.501 896.959 180.035C896.959 147.071 882.336 125.895 845.439 109.304L829.717 101.881C807.891 92.1665 800.464 86.8178 800.464 76.1211C800.464 64.5506 810.621 55.5997 830.158 55.5997Z" fill="#163300"/>
</svg>
